<?xml version="1.0" encoding="utf-8"?>
<!-- Generator: Adobe Illustrator 23.1.0, SVG Export Plug-In . SVG Version: 6.00 Build 0)  -->
<svg version="1.1" id="Layer_1" xmlns="http://www.w3.org/2000/svg" xmlns:xlink="http://www.w3.org/1999/xlink" x="0px" y="0px" 
	 viewBox="0 0 2000 2000" enable-background="new 0 0 2000 2000" xml:space="preserve" style="background:white">
<g>
	<path fill="#085BF7" d="M1610.784,1461.104c97.108-128.209,154.865-287.939,154.865-460.998s-57.756-333.001-154.865-461.209
		l271.754-271.754c41.304-41.304,41.304-108.271,0-149.575c-41.304-41.304-108.271-41.304-149.576,0L1461.21,389.322
		c-101.763-77.009-223.413-129.265-355.64-147.459c-34.484-4.867-69.816-7.406-105.57-7.406c-35.965,0-71.509,2.539-105.994,7.406
		c-132.227,18.406-253.453,70.45-355.215,147.459L267.038,117.568c-41.304-41.304-108.271-41.304-149.575,0l0,0
		c-41.304,41.304-41.304,108.271,0,149.575l271.754,271.754c-97.107,128.208-154.865,288.15-154.865,461.209
		s57.758,332.789,154.865,460.998l-271.753,271.752c-41.304,41.304-41.304,108.271,0,149.575l0,0
		c41.304,41.304,108.271,41.304,149.575,0l271.754-271.754c101.762,77.01,222.987,129.055,355.215,147.46
		c34.485,4.866,70.029,7.404,105.994,7.404c35.754,0,71.086-2.538,105.57-7.404c132.227-18.194,253.877-70.451,355.64-147.46
		l271.752,271.753c41.304,41.304,108.271,41.304,149.576,0v0c41.304-41.304,41.304-108.271,0-149.575L1610.784,1461.104z
		 M1105.57,1543.825c-34.062,6.771-69.392,10.155-105.57,10.155c-36.177,0-71.719-3.596-105.994-10.155
		c-74.258-14.386-143.228-43.794-203.524-84.625c-59.026-39.774-109.801-90.761-149.574-149.576
		c-59.873-88.434-94.993-194.85-94.993-309.518s35.12-221.295,94.993-309.73c39.773-59.026,90.548-109.801,149.574-149.574
		c60.297-40.833,129.267-70.239,203.524-84.625c34.275-6.56,69.817-10.156,105.994-10.156c36.177,0,71.508,3.386,105.57,10.156
		c74.471,14.386,143.441,43.582,203.948,84.625c59.027,39.773,109.801,90.549,149.575,149.574
		c59.873,88.435,94.992,195.062,94.992,309.73s-35.119,221.084-94.992,309.518c-39.774,58.815-90.548,109.802-149.575,149.576
		C1249.011,1500.243,1180.041,1529.439,1105.57,1543.825z"/>
	<g>
		<path fill="#085BF7" d="M602.28,1198.252c0,0,84.001-285.003,297.003-439.005l-23-85.001l350.004,110.001
			C1226.286,784.248,847.283,838.248,602.28,1198.252z"/>
		<path fill="#085BF7" d="M1397.72,801.748c0,0-84.001,285.003-297.003,439.004l23,85.001l-350.004-110.001
			C773.714,1215.752,1152.717,1161.752,1397.72,801.748z"/>
	</g>
</g>
</svg>
